<svg width="35" height="42" viewBox="0 0 35 42" fill="none" xmlns="http://www.w3.org/2000/svg">
<path d="M17.5 2.625C19.1576 2.625 20.7473 3.3164 21.9194 4.54711C23.0915 5.77782 23.75 7.44702 23.75 9.1875V10.5H11.25V9.1875C11.25 7.44702 11.9085 5.77782 13.0806 4.54711C14.2527 3.3164 15.8424 2.625 17.5 2.625ZM26.25 10.5V9.1875C26.25 6.75082 25.3281 4.41395 23.6872 2.69096C22.0462 0.967966 19.8206 0 17.5 0C15.1794 0 12.9538 0.967966 11.3128 2.69096C9.67187 4.41395 8.75 6.75082 8.75 9.1875V10.5H0V36.75C0 38.1424 0.526784 39.4777 1.46447 40.4623C2.40215 41.4469 3.67392 42 5 42H30C31.3261 42 32.5979 41.4469 33.5355 40.4623C34.4732 39.4777 35 38.1424 35 36.75V10.5H26.25ZM2.5 13.125H32.5V36.75C32.5 37.4462 32.2366 38.1139 31.7678 38.6062C31.2989 39.0984 30.663 39.375 30 39.375H5C4.33696 39.375 3.70107 39.0984 3.23223 38.6062C2.76339 38.1139 2.5 37.4462 2.5 36.75V13.125Z" fill="black"/>
</svg>
