<svg width="12" height="16" viewBox="0 0 13 18" fill="none" xmlns="http://www.w3.org/2000/svg">
<path d="M12.8574 2.3888V0.664197C12.8574 0.514716 12.6554 0.432167 12.519 0.52364L0.691404 8.37919C0.590912 8.44565 0.509597 8.53074 0.453663 8.62799C0.397729 8.72523 0.368652 8.83205 0.368652 8.9403C0.368652 9.04856 0.397729 9.15538 0.453663 9.25262C0.509597 9.34987 0.590912 9.43496 0.691404 9.50141L12.519 17.357C12.658 17.4484 12.8574 17.3659 12.8574 17.2164V15.4918C12.8574 15.3825 12.7971 15.2776 12.6974 15.2107L3.25212 8.94142L12.6974 2.66992C12.7971 2.60299 12.8574 2.49813 12.8574 2.3888Z" fill="black"/>
</svg>
