<svg width="35" height="52" viewBox="0 0 35 52" fill="none" xmlns="http://www.w3.org/2000/svg">
<path fill-rule="evenodd" clip-rule="evenodd" d="M8.78707 2.43562C14.2232 -0.865092 20.9052 -0.807401 26.2903 2.58674C31.6225 6.05001 34.8633 12.2309 34.8331 18.8799C34.709 25.4852 31.234 31.6942 26.8902 36.4941C24.3831 39.2769 21.5784 41.7376 18.5335 43.826C18.2199 44.0155 17.8764 44.1423 17.52 44.2003C17.1769 44.185 16.8428 44.0791 16.5478 43.892C11.8992 40.7541 7.82096 36.7487 4.50928 32.0685C1.73816 28.1617 0.163804 23.4418 2.89517e-06 18.5496C-0.0035974 11.8879 3.3509 5.73633 8.78707 2.43562ZM11.927 21.3069C12.8415 23.6626 14.9999 25.1993 17.3945 25.1993C18.9632 25.211 20.4713 24.5544 21.5825 23.3757C22.6937 22.197 23.3159 20.5941 23.3103 18.9242C23.3187 16.3753 21.8827 14.0724 19.6728 13.0908C17.4628 12.1092 14.9149 12.6425 13.2187 14.4417C11.5225 16.2409 11.0126 18.9511 11.927 21.3069Z" fill="#9854AB"/>
<ellipse opacity="0.4" cx="17.4161" cy="49.4003" rx="12.4406" ry="2.60002" fill="#9854AB"/>
</svg>
