<svg width="12" height="16" viewBox="0 0 13 20" fill="none" xmlns="http://www.w3.org/2000/svg">
<path d="M0.341862 17.0976V19.0067C0.341862 19.1722 0.538534 19.2636 0.67135 19.1623L12.1856 10.4662C12.2834 10.3926 12.3625 10.2984 12.417 10.1908C12.4714 10.0831 12.4998 9.96489 12.4998 9.84505C12.4998 9.72522 12.4714 9.60697 12.417 9.49932C12.3625 9.39167 12.2834 9.29747 12.1856 9.2239L0.67135 0.527781C0.535979 0.426519 0.341862 0.517902 0.341862 0.683378L0.341862 2.59252C0.341862 2.71354 0.400607 2.82962 0.497665 2.90372L9.69268 9.84382L0.497665 16.7864C0.400607 16.8605 0.341862 16.9766 0.341862 17.0976Z" fill="black"/>
</svg>
